<?xml version="1.0" standalone="no"?>
<svg viewBox="0 0 200 200" xmlns="http://www.w3.org/2000/svg">
  <path fill="#FF0066" d="M37.8,-52.9C51.4,-50.2,66.4,-43.7,70.1,-32.8C73.8,-21.9,66.3,-6.7,62.5,7.9C58.8,22.6,58.7,36.7,52.8,48.6C46.9,60.4,35.1,70.1,23.2,69.1C11.2,68.1,-1,56.4,-14.5,51.5C-27.9,46.5,-42.7,48.1,-46.9,41.6C-51,35,-44.6,20.3,-42.7,8.5C-40.7,-3.3,-43.2,-12.1,-43.2,-22.9C-43.2,-33.7,-40.7,-46.6,-33.1,-52C-25.5,-57.4,-12.7,-55.4,-0.3,-55C12.1,-54.5,24.3,-55.6,37.8,-52.9Z" transform="translate(100 100)" />
</svg>
